# Blender 4.0.2
# www.blender.org
mtllib Cauldron.mtl
o Cube
v 0.000000 0.000000 -0.681898
v -0.482175 0.000000 -0.482175
v -0.681898 0.000000 0.000000
v -0.482175 0.000000 0.482175
v 0.000000 0.000000 0.681898
v 0.482175 0.000000 0.482175
v 0.681898 0.000000 0.000000
v 0.482175 0.000000 -0.482175
v 0.000000 0.249208 -1.000000
v -0.707107 0.249208 -0.707107
v -1.000000 0.249208 0.000000
v -0.707107 0.249208 0.707107
v 0.000000 0.249208 1.000000
v 0.707107 0.249208 0.707107
v 1.000000 0.249208 0.000000
v 0.707107 0.249208 -0.707107
v 0.000000 0.648451 -1.115082
v -0.788482 0.648451 -0.788482
v -1.115082 0.648451 0.000000
v -0.788482 0.648451 0.788482
v 0.000000 0.648451 1.115082
v 0.788482 0.648451 0.788482
v 1.115082 0.648451 0.000000
v 0.788482 0.648451 -0.788482
v 0.000000 1.079629 -0.855615
v -0.605011 1.079629 -0.605011
v -0.855615 1.079629 0.000000
v -0.605011 1.079629 0.605011
v 0.000000 1.079629 0.855615
v 0.605011 1.079629 0.605011
v 0.855615 1.079629 0.000000
v 0.605011 1.079629 -0.605011
v 0.000000 1.258250 -0.612900
v -0.433386 1.258250 -0.433386
v -0.612900 1.258250 0.000000
v -0.433386 1.258250 0.433386
v 0.000000 1.258250 0.612900
v 0.433386 1.258250 0.433386
v 0.612900 1.258250 0.000000
v 0.433386 1.258250 -0.433386
v 0.000000 1.410004 -0.547717
v -0.387294 1.410004 -0.387294
v -0.547717 1.410004 0.000000
v -0.387294 1.410004 0.387294
v 0.000000 1.410004 0.547717
v 0.387294 1.410004 0.387294
v 0.547717 1.410004 0.000000
v 0.387294 1.410004 -0.387294
v 0.000000 1.557459 -0.571345
v -0.404002 1.557459 -0.404002
v -0.571345 1.557459 0.000000
v -0.404002 1.557459 0.404002
v 0.000000 1.557459 0.571345
v 0.404002 1.557459 0.404002
v 0.571345 1.557459 0.000000
v 0.404002 1.557459 -0.404002
v 0.000000 1.737108 -0.680234
v -0.480998 1.737108 -0.480998
v -0.680234 1.737108 0.000000
v -0.480998 1.737108 0.480998
v 0.000000 1.737108 0.680234
v 0.480998 1.737108 0.480998
v 0.680234 1.737108 0.000000
v 0.480998 1.737108 -0.480998
v 0.000000 0.091876 -0.642416
v -0.454257 0.091876 -0.454257
v -0.642416 0.091876 0.000000
v -0.454257 0.091876 0.454257
v 0.000000 0.091876 0.642416
v 0.454257 0.091876 0.454257
v 0.642416 0.091876 0.000000
v 0.454257 0.091876 -0.454257
v 0.000000 0.301886 -0.915000
v -0.647003 0.301886 -0.647003
v -0.915000 0.301886 0.000000
v -0.647003 0.301886 0.647003
v 0.000000 0.301886 0.915000
v 0.647003 0.301886 0.647003
v 0.915000 0.301886 0.000000
v 0.647003 0.301886 -0.647003
v -0.000000 0.636537 -1.015794
v -0.718275 0.636537 -0.718275
v -1.015794 0.636537 0.000000
v -0.718275 0.636537 0.718275
v 0.000000 0.636537 1.015794
v 0.718275 0.636537 0.718275
v 1.015794 0.636537 0.000000
v 0.718275 0.636537 -0.718275
v -0.000000 1.014585 -0.779659
v -0.551302 1.014585 -0.551302
v -0.779659 1.014585 0.000000
v -0.551302 1.014585 0.551302
v 0.000000 1.014585 0.779659
v 0.551302 1.014585 0.551302
v 0.779659 1.014585 0.000000
v 0.551302 1.014585 -0.551302
v 0.000000 1.192738 -0.537348
v -0.379962 1.192738 -0.379962
v -0.537348 1.192738 0.000000
v -0.379962 1.192738 0.379962
v 0.000000 1.192738 0.537348
v 0.379962 1.192738 0.379962
v 0.537348 1.192738 0.000000
v 0.379962 1.192738 -0.379962
v 0.000000 1.396775 -0.448596
v -0.317205 1.396775 -0.317205
v -0.448596 1.396775 0.000000
v -0.317205 1.396775 0.317205
v 0.000000 1.396775 0.448596
v 0.317205 1.396775 0.317205
v 0.448596 1.396775 0.000000
v 0.317205 1.396775 -0.317205
v 0.000000 1.593544 -0.478083
v -0.338055 1.593544 -0.338055
v -0.478083 1.593544 0.000000
v -0.338055 1.593544 0.338055
v -0.000000 1.593544 0.478083
v 0.338055 1.593544 0.338055
v 0.478083 1.593544 0.000000
v 0.338055 1.593544 -0.338055
v 0.000000 1.788942 -0.594717
v -0.420528 1.788942 -0.420528
v -0.594717 1.788942 0.000000
v -0.420528 1.788942 0.420528
v -0.000000 1.788942 0.594717
v 0.420528 1.788942 0.420528
v 0.594717 1.788942 0.000000
v 0.420528 1.788942 -0.420528
vn -0.0000 -0.9188 -0.3948
vn -0.2792 -0.9188 -0.2792
vn -0.6010 -0.5268 -0.6010
vn -0.0000 -0.5268 -0.8500
vn 0.2792 -0.9188 -0.2792
vn 0.6010 -0.5268 -0.6010
vn 0.2792 -0.9188 0.2792
vn 0.3948 -0.9188 -0.0000
vn 0.8500 -0.5268 -0.0000
vn 0.6010 -0.5268 0.6010
vn -0.2792 -0.9188 0.2792
vn -0.0000 -0.9188 0.3948
vn -0.0000 -0.5268 0.8500
vn -0.6010 -0.5268 0.6010
vn -0.3948 -0.9188 -0.0000
vn -0.8500 -0.5268 -0.0000
vn -0.0000 0.1191 0.9929
vn -0.7021 0.1191 0.7021
vn -0.9929 0.1191 -0.0000
vn -0.7021 0.1191 -0.7021
vn 0.7021 0.1191 -0.7021
vn 0.9929 0.1191 -0.0000
vn 0.7021 0.1191 0.7021
vn -0.0000 0.1191 -0.9929
vn -0.0000 0.6504 -0.7596
vn 0.5371 0.6504 -0.5371
vn 0.7596 0.6504 -0.0000
vn 0.5371 0.6504 0.5371
vn -0.0000 0.6504 0.7596
vn -0.5371 0.6504 0.5371
vn -0.7596 0.6504 -0.0000
vn -0.5371 0.6504 -0.5371
vn 0.5342 0.6551 0.5342
vn -0.0000 0.6551 0.7555
vn -0.5342 0.6551 0.5342
vn -0.7555 0.6551 -0.0000
vn -0.5342 0.6551 -0.5342
vn -0.0000 0.6551 -0.7555
vn 0.5342 0.6551 -0.5342
vn 0.7555 0.6551 -0.0000
vn 0.7009 0.1323 -0.7009
vn 0.9912 0.1323 -0.0000
vn 0.7009 0.1323 0.7009
vn -0.0000 0.1323 0.9912
vn -0.7009 0.1323 0.7009
vn -0.9912 0.1323 -0.0000
vn -0.7009 0.1323 -0.7009
vn -0.0000 0.1323 -0.9912
vn 0.9326 -0.3608 -0.0000
vn 0.6595 -0.3608 0.6595
vn -0.0000 -0.3608 0.9326
vn -0.6595 -0.3608 0.6595
vn -0.9326 -0.3608 -0.0000
vn -0.6595 -0.3608 -0.6595
vn 0.6595 -0.3608 -0.6595
vn -0.0000 -0.3608 -0.9326
vn -0.0000 -0.5183 0.8552
vn -0.6047 -0.5183 0.6047
vn -0.8552 -0.5183 -0.0000
vn -0.6047 -0.5183 -0.6047
vn 0.6047 -0.5183 -0.6047
vn 0.8552 -0.5183 -0.0000
vn 0.6047 -0.5183 0.6047
vn -0.0000 -0.5183 -0.8552
vn -0.0000 0.9206 0.3905
vn -0.0000 0.5349 0.8449
vn 0.5974 0.5349 0.5974
vn 0.2761 0.9206 0.2761
vn -0.2761 0.9206 0.2761
vn -0.5974 0.5349 0.5974
vn -0.2761 0.9206 -0.2761
vn -0.5974 0.5349 -0.5974
vn -0.8449 0.5349 -0.0000
vn -0.3905 0.9206 -0.0000
vn 0.2761 0.9206 -0.2761
vn 0.5974 0.5349 -0.5974
vn -0.0000 0.5349 -0.8449
vn -0.0000 0.9206 -0.3905
vn 0.8449 0.5349 -0.0000
vn 0.3905 0.9206 -0.0000
vn 0.7019 -0.1210 -0.7019
vn -0.0000 -0.1210 -0.9927
vn 0.7019 -0.1210 0.7019
vn 0.9927 -0.1210 -0.0000
vn -0.9927 -0.1210 -0.0000
vn -0.7019 -0.1210 0.7019
vn -0.7019 -0.1210 -0.7019
vn -0.0000 -0.1210 0.9927
vn -0.5327 -0.6576 0.5327
vn -0.0000 -0.6576 0.7534
vn -0.5327 -0.6576 -0.5327
vn -0.7534 -0.6576 -0.0000
vn 0.5327 -0.6576 -0.5327
vn -0.0000 -0.6576 -0.7534
vn 0.5327 -0.6576 0.5327
vn 0.7534 -0.6576 -0.0000
vn -0.0000 -0.6569 -0.7540
vn -0.5332 -0.6569 -0.5332
vn 0.7540 -0.6569 -0.0000
vn 0.5332 -0.6569 -0.5332
vn -0.0000 -0.6569 0.7540
vn 0.5332 -0.6569 0.5332
vn -0.5332 -0.6569 0.5332
vn -0.7540 -0.6569 -0.0000
vn -0.9901 -0.1400 -0.0000
vn -0.7001 -0.1400 0.7001
vn -0.0000 -0.1400 -0.9901
vn -0.7001 -0.1400 -0.7001
vn 0.9901 -0.1400 -0.0000
vn 0.7001 -0.1400 -0.7001
vn -0.0000 -0.1400 0.9901
vn 0.7001 -0.1400 0.7001
vn -0.6617 0.3527 -0.6617
vn -0.9357 0.3527 -0.0000
vn 0.6617 0.3527 -0.6617
vn -0.0000 0.3527 -0.9357
vn 0.6617 0.3527 0.6617
vn 0.9357 0.3527 -0.0000
vn -0.6617 0.3527 0.6617
vn -0.0000 0.3527 0.9357
vn 0.6072 0.5125 -0.6072
vn -0.0000 0.5125 -0.8587
vn 0.6072 0.5125 0.6072
vn 0.8587 0.5125 -0.0000
vn -0.8587 0.5125 -0.0000
vn -0.6072 0.5125 0.6072
vn -0.6072 0.5125 -0.6072
vn -0.0000 0.5125 0.8587
vn -0.0000 0.8552 -0.5183
vn -0.3665 0.8552 -0.3665
vn -0.5183 0.8552 -0.0000
vn -0.3665 0.8552 0.3665
vn -0.0000 0.8552 0.5183
vn 0.3665 0.8552 0.3665
vn 0.5183 0.8552 -0.0000
vn 0.3665 0.8552 -0.3665
vt 0.000000 0.000000
s 1
usemtl Material
f 1/1/1 2/1/2 10/1/3 9/1/4
f 8/1/5 1/1/1 9/1/4 16/1/6
f 6/1/7 7/1/8 15/1/9 14/1/10
f 4/1/11 5/1/12 13/1/13 12/1/14
f 2/1/2 3/1/15 11/1/16 10/1/3
f 7/1/8 8/1/5 16/1/6 15/1/9
f 5/1/12 6/1/7 14/1/10 13/1/13
f 3/1/15 4/1/11 12/1/14 11/1/16
f 2/1/2 1/1/1 8/1/5 7/1/8 6/1/7 5/1/12 4/1/11 3/1/15
f 12/1/14 13/1/13 21/1/17 20/1/18
f 10/1/3 11/1/16 19/1/19 18/1/20
f 15/1/9 16/1/6 24/1/21 23/1/22
f 13/1/13 14/1/10 22/1/23 21/1/17
f 11/1/16 12/1/14 20/1/18 19/1/19
f 9/1/4 10/1/3 18/1/20 17/1/24
f 16/1/6 9/1/4 17/1/24 24/1/21
f 14/1/10 15/1/9 23/1/22 22/1/23
f 24/1/21 17/1/24 25/1/25 32/1/26
f 22/1/23 23/1/22 31/1/27 30/1/28
f 20/1/18 21/1/17 29/1/29 28/1/30
f 18/1/20 19/1/19 27/1/31 26/1/32
f 23/1/22 24/1/21 32/1/26 31/1/27
f 21/1/17 22/1/23 30/1/28 29/1/29
f 19/1/19 20/1/18 28/1/30 27/1/31
f 17/1/24 18/1/20 26/1/32 25/1/25
f 29/1/29 30/1/28 38/1/33 37/1/34
f 27/1/31 28/1/30 36/1/35 35/1/36
f 25/1/25 26/1/32 34/1/37 33/1/38
f 32/1/26 25/1/25 33/1/38 40/1/39
f 30/1/28 31/1/27 39/1/40 38/1/33
f 28/1/30 29/1/29 37/1/34 36/1/35
f 26/1/32 27/1/31 35/1/36 34/1/37
f 31/1/27 32/1/26 40/1/39 39/1/40
f 39/1/40 40/1/39 48/1/41 47/1/42
f 37/1/34 38/1/33 46/1/43 45/1/44
f 35/1/36 36/1/35 44/1/45 43/1/46
f 33/1/38 34/1/37 42/1/47 41/1/48
f 40/1/39 33/1/38 41/1/48 48/1/41
f 38/1/33 39/1/40 47/1/42 46/1/43
f 36/1/35 37/1/34 45/1/44 44/1/45
f 34/1/37 35/1/36 43/1/46 42/1/47
f 46/1/43 47/1/42 55/1/49 54/1/50
f 44/1/45 45/1/44 53/1/51 52/1/52
f 42/1/47 43/1/46 51/1/53 50/1/54
f 47/1/42 48/1/41 56/1/55 55/1/49
f 45/1/44 46/1/43 54/1/50 53/1/51
f 43/1/46 44/1/45 52/1/52 51/1/53
f 41/1/48 42/1/47 50/1/54 49/1/56
f 48/1/41 41/1/48 49/1/56 56/1/55
f 52/1/52 53/1/51 61/1/57 60/1/58
f 50/1/54 51/1/53 59/1/59 58/1/60
f 55/1/49 56/1/55 64/1/61 63/1/62
f 53/1/51 54/1/50 62/1/63 61/1/57
f 51/1/53 52/1/52 60/1/58 59/1/59
f 49/1/56 50/1/54 58/1/60 57/1/64
f 56/1/55 49/1/56 57/1/64 64/1/61
f 54/1/50 55/1/49 63/1/62 62/1/63
f 65/1/65 73/1/66 74/1/67 66/1/68
f 72/1/69 80/1/70 73/1/66 65/1/65
f 70/1/71 78/1/72 79/1/73 71/1/74
f 68/1/75 76/1/76 77/1/77 69/1/78
f 66/1/68 74/1/67 75/1/79 67/1/80
f 71/1/74 79/1/73 80/1/70 72/1/69
f 69/1/78 77/1/77 78/1/72 70/1/71
f 67/1/80 75/1/79 76/1/76 68/1/75
f 66/1/68 67/1/80 68/1/75 69/1/78 70/1/71 71/1/74 72/1/69 65/1/65
f 76/1/76 84/1/81 85/1/82 77/1/77
f 74/1/67 82/1/83 83/1/84 75/1/79
f 79/1/73 87/1/85 88/1/86 80/1/70
f 77/1/77 85/1/82 86/1/87 78/1/72
f 75/1/79 83/1/84 84/1/81 76/1/76
f 73/1/66 81/1/88 82/1/83 74/1/67
f 80/1/70 88/1/86 81/1/88 73/1/66
f 78/1/72 86/1/87 87/1/85 79/1/73
f 88/1/86 96/1/89 89/1/90 81/1/88
f 86/1/87 94/1/91 95/1/92 87/1/85
f 84/1/81 92/1/93 93/1/94 85/1/82
f 82/1/83 90/1/95 91/1/96 83/1/84
f 87/1/85 95/1/92 96/1/89 88/1/86
f 85/1/82 93/1/94 94/1/91 86/1/87
f 83/1/84 91/1/96 92/1/93 84/1/81
f 81/1/88 89/1/90 90/1/95 82/1/83
f 93/1/94 101/1/97 102/1/98 94/1/91
f 91/1/96 99/1/99 100/1/100 92/1/93
f 89/1/90 97/1/101 98/1/102 90/1/95
f 96/1/89 104/1/103 97/1/101 89/1/90
f 94/1/91 102/1/98 103/1/104 95/1/92
f 92/1/93 100/1/100 101/1/97 93/1/94
f 90/1/95 98/1/102 99/1/99 91/1/96
f 95/1/92 103/1/104 104/1/103 96/1/89
f 103/1/104 111/1/105 112/1/106 104/1/103
f 101/1/97 109/1/107 110/1/108 102/1/98
f 99/1/99 107/1/109 108/1/110 100/1/100
f 97/1/101 105/1/111 106/1/112 98/1/102
f 104/1/103 112/1/106 105/1/111 97/1/101
f 102/1/98 110/1/108 111/1/105 103/1/104
f 100/1/100 108/1/110 109/1/107 101/1/97
f 98/1/102 106/1/112 107/1/109 99/1/99
f 110/1/108 118/1/113 119/1/114 111/1/105
f 108/1/110 116/1/115 117/1/116 109/1/107
f 106/1/112 114/1/117 115/1/118 107/1/109
f 111/1/105 119/1/114 120/1/119 112/1/106
f 109/1/107 117/1/116 118/1/113 110/1/108
f 107/1/109 115/1/118 116/1/115 108/1/110
f 105/1/111 113/1/120 114/1/117 106/1/112
f 112/1/106 120/1/119 113/1/120 105/1/111
f 116/1/115 124/1/121 125/1/122 117/1/116
f 114/1/117 122/1/123 123/1/124 115/1/118
f 119/1/114 127/1/125 128/1/126 120/1/119
f 117/1/116 125/1/122 126/1/127 118/1/113
f 115/1/118 123/1/124 124/1/121 116/1/115
f 113/1/120 121/1/128 122/1/123 114/1/117
f 120/1/119 128/1/126 121/1/128 113/1/120
f 118/1/113 126/1/127 127/1/125 119/1/114
f 57/1/129 58/1/130 122/1/130 121/1/129
f 58/1/130 59/1/131 123/1/131 122/1/130
f 59/1/131 60/1/132 124/1/132 123/1/131
f 60/1/132 61/1/133 125/1/133 124/1/132
f 61/1/133 62/1/134 126/1/134 125/1/133
f 62/1/134 63/1/135 127/1/135 126/1/134
f 63/1/135 64/1/136 128/1/136 127/1/135
f 64/1/136 57/1/129 121/1/129 128/1/136
