# Blender 4.0.2
# www.blender.org
mtllib Chair.mtl
o Cube
v -1.000000 1.818713 -0.960000
v -0.960000 1.858713 -0.960000
v -0.960000 1.818713 -1.000000
v -1.000000 1.818713 0.960000
v -0.960000 1.818713 1.000000
v -0.960000 1.858713 0.960000
v 1.000000 1.818713 0.960000
v 0.960000 1.858713 0.960000
v 0.960000 1.818713 1.000000
v 1.000000 1.818713 -0.960000
v 0.960000 1.818713 -1.000000
v 0.960000 1.858713 -0.960000
v 1.000000 1.678184 -0.960000
v 0.960000 1.638184 -0.960000
v 0.960000 1.678184 -1.000000
v 1.000000 1.678184 0.960000
v 0.960000 1.678184 1.000000
v 0.960000 1.638184 0.960000
v -1.000000 1.678184 -0.960000
v -0.960000 1.678184 -1.000000
v -0.960000 1.638184 -0.960000
v -1.000000 1.678184 0.960000
v -0.960000 1.638184 0.960000
v -0.960000 1.678184 1.000000
v -0.790027 0.000000 -0.893909
v -0.912403 0.000000 -0.804998
v -0.865660 0.000000 -0.661135
v -0.714394 0.000000 -0.661135
v -0.667650 0.000000 -0.804998
v -0.790027 1.638184 -0.893909
v -0.912403 1.638184 -0.804998
v -0.865660 1.638184 -0.661135
v -0.714394 1.638184 -0.661135
v -0.667650 1.638184 -0.804998
v -0.790027 0.856909 -0.713185
v -0.790027 0.819092 -0.829572
v -0.790027 0.757904 -0.785116
v 0.000000 0.781276 -0.713185
v -0.790027 0.781276 -0.713185
v -0.790027 0.880280 -0.785116
v 0.000000 0.819092 -0.829572
v 0.000000 0.880280 -0.785116
v 0.000000 0.856909 -0.713185
v 0.000000 0.757904 -0.785116
v -0.842077 0.781276 -0.765235
v -0.842077 0.856909 -0.765235
v -0.770145 0.880280 -0.765235
v -0.725690 0.819092 -0.765235
v -0.770145 0.757904 -0.765235
v -0.725690 0.819092 0.000000
v -0.770146 0.880280 0.000000
v -0.842077 0.856909 0.000000
v -0.842077 0.781276 0.000000
v -0.770146 0.757904 0.000000
v 0.790027 0.000000 -0.893909
v 0.912403 0.000000 -0.804998
v 0.865660 0.000000 -0.661135
v 0.714394 0.000000 -0.661135
v 0.667650 0.000000 -0.804998
v 0.790027 1.638184 -0.893909
v 0.912403 1.638184 -0.804998
v 0.865660 1.638184 -0.661135
v 0.714394 1.638184 -0.661135
v 0.667650 1.638184 -0.804998
v 0.790027 0.856909 -0.713185
v 0.790027 0.819092 -0.829572
v 0.790027 0.757904 -0.785116
v 0.790027 0.781276 -0.713185
v 0.790027 0.880280 -0.785116
v 0.842077 0.781276 -0.765235
v 0.842077 0.856909 -0.765235
v 0.770145 0.880280 -0.765235
v 0.725690 0.819092 -0.765235
v 0.770145 0.757904 -0.765235
v 0.725690 0.819092 0.000000
v 0.770146 0.880280 0.000000
v 0.842077 0.856909 0.000000
v 0.842077 0.781276 0.000000
v 0.770146 0.757904 0.000000
v -0.790027 0.000000 0.893909
v -0.912403 0.000000 0.804998
v -0.865660 0.000000 0.661135
v -0.714394 0.000000 0.661135
v -0.667650 0.000000 0.804998
v -0.790027 1.638184 0.893909
v -0.912403 1.638184 0.804998
v -0.865660 1.638184 0.661135
v -0.714394 1.638184 0.661135
v -0.667650 1.638184 0.804998
v -0.790027 0.856909 0.713185
v -0.790027 0.819092 0.829572
v -0.790027 0.757904 0.785116
v 0.000000 0.781276 0.713185
v -0.790027 0.781276 0.713185
v -0.790027 0.880280 0.785116
v 0.000000 0.819092 0.829572
v 0.000000 0.880280 0.785116
v 0.000000 0.856909 0.713185
v 0.000000 0.757904 0.785116
v -0.842077 0.781276 0.765235
v -0.842077 0.856909 0.765235
v -0.770145 0.880280 0.765235
v -0.725690 0.819092 0.765235
v -0.770145 0.757904 0.765235
v 0.790027 0.000000 0.893909
v 0.912403 0.000000 0.804998
v 0.865660 0.000000 0.661135
v 0.714394 0.000000 0.661135
v 0.667650 0.000000 0.804998
v 0.790027 1.638184 0.893909
v 0.912403 1.638184 0.804998
v 0.865660 1.638184 0.661135
v 0.714394 1.638184 0.661135
v 0.667650 1.638184 0.804998
v 0.790027 0.856909 0.713185
v 0.790027 0.819092 0.829572
v 0.790027 0.757904 0.785116
v 0.790027 0.781276 0.713185
v 0.790027 0.880280 0.785116
v 0.842077 0.781276 0.765235
v 0.842077 0.856909 0.765235
v 0.770145 0.880280 0.765235
v 0.725690 0.819092 0.765235
v 0.770145 0.757904 0.765235
vn 0.8756 -0.3416 0.3416
vn 0.8756 -0.3416 -0.3416
vn 0.8756 0.3416 -0.3416
vn 0.8756 0.3416 0.3416
vn -0.3416 -0.8756 0.3416
vn -0.3416 -0.8756 -0.3416
vn 0.3416 -0.8756 -0.3416
vn 0.3416 -0.8756 0.3416
vn -0.3416 0.8756 -0.3416
vn -0.3416 0.8756 0.3416
vn 0.3416 0.8756 0.3416
vn 0.3416 0.8756 -0.3416
vn -0.3416 -0.3416 0.8756
vn 0.3416 -0.3416 0.8756
vn 0.3416 0.3416 0.8756
vn -0.3416 0.3416 0.8756
vn 0.3416 -0.3416 -0.8756
vn -0.3416 -0.3416 -0.8756
vn -0.3416 0.3416 -0.8756
vn 0.3416 0.3416 -0.8756
vn -0.8756 0.3416 -0.3416
vn -0.8756 0.3416 0.3416
vn -0.8756 -0.3416 -0.3416
vn -0.8756 -0.3416 0.3416
vn 0.9511 -0.0000 -0.3090
vn -0.0000 -0.0000 -1.0000
vn -0.5878 -0.0000 0.8090
vn 0.5878 -0.0000 0.8090
vn -0.9511 -0.0000 -0.3090
vn -0.0000 -1.0000 -0.0000
vn -0.0000 -0.9511 -0.3090
vn -0.0000 0.5878 0.8090
vn -0.0000 -0.5878 0.8090
vn -0.0000 0.9511 -0.3090
vn -1.0000 -0.0000 -0.0000
vn 1.0000 -0.0000 -0.0000
vn 0.3090 -0.9511 -0.0000
vn -0.8090 0.5878 -0.0000
vn -0.8090 -0.5878 -0.0000
vn 0.3090 0.9511 -0.0000
vn -0.0000 -0.0000 1.0000
vn -0.3090 -0.9511 -0.0000
vn 0.8090 0.5878 -0.0000
vn 0.8090 -0.5878 -0.0000
vn -0.3090 0.9511 -0.0000
vn 0.9511 -0.0000 0.3090
vn -0.5878 -0.0000 -0.8090
vn 0.5878 -0.0000 -0.8090
vn -0.9511 -0.0000 0.3090
vn -0.0000 -0.9511 0.3090
vn -0.0000 0.5878 -0.8090
vn -0.0000 -0.5878 -0.8090
vn -0.0000 0.9511 0.3090
vt 0.625000 0.995000
vt 0.625000 0.755000
vt 0.625000 0.755000
vt 0.625000 0.995000
vt 0.865893 0.495893
vt 0.629107 0.259107
vt 0.625893 0.495893
vt 0.629107 0.499107
vt 0.620000 0.005000
vt 0.620000 0.245000
vt 0.380000 0.245000
vt 0.380000 0.005000
vt 0.625000 0.745000
vt 0.625000 0.505000
vt 0.625000 0.505000
vt 0.625000 0.745000
vt 0.625000 0.495000
vt 0.625000 0.255000
vt 0.625000 0.255000
vt 0.625000 0.495000
vt 0.625000 0.005000
vt 0.620000 0.000000
vt 0.625000 0.245000
vt 0.620000 0.250000
vt 0.375000 0.245000
vt 0.380000 0.250000
vt 0.375000 0.005000
vt 0.380000 0.000000
vt 0.625000 0.500000
vt 0.630000 0.500000
vt 0.630000 0.255000
vt 0.870000 0.495000
vt 0.870000 0.500000
vt 0.625000 1.000000
vt 0.625000 0.250000
vt 0.625000 0.750000
vt 0.625000 0.005000
vt 0.875000 0.745000
vt 0.875000 0.505000
vt 0.875000 0.505000
vt 0.875000 0.745000
vt 0.000000 0.000000
s 1
usemtl Material
f 16/1/1 13/2/2 10/3/3 7/4/4
f 23/5/5 21/6/6 14/7/7 18/8/8
f 2/9/9 6/10/10 8/11/11 12/12/12
f 24/13/13 17/14/14 9/15/15 5/16/16
f 15/17/17 20/18/18 3/19/19 11/20/20
f 1/21/21 2/9/9 3/22/19
f 4/23/22 5/24/16 6/10/10
f 7/25/4 8/11/11 9/26/15
f 10/27/3 11/28/20 12/12/12
f 13/29/2 14/7/7 15/17/17
f 16/29/1 17/30/14 18/8/8
f 19/31/23 20/18/18 21/6/6
f 22/32/24 23/5/5 24/33/13
f 9/34/15 17/34/14 16/1/1 7/4/4
f 19/35/23 1/35/21 3/19/19 20/18/18
f 15/17/17 11/20/20 10/29/3 13/29/2
f 24/13/13 5/16/16 4/36/22 22/36/24
f 2/9/9 12/12/12 11/28/20 3/22/19
f 20/18/18 15/17/17 14/7/7 21/6/6
f 17/30/14 24/33/13 23/5/5 18/8/8
f 8/11/11 6/10/10 5/24/16 9/26/15
f 6/10/10 2/9/9 1/37/21 4/23/22
f 12/12/12 8/11/11 7/25/4 10/27/3
f 13/29/2 16/29/1 18/8/8 14/7/7
f 22/32/24 19/31/23 21/6/6 23/5/5
f 19/38/23 22/39/24 4/40/22 1/41/21
f 29/42/25 25/42/26 30/42/26 34/42/25
f 27/42/27 28/42/28 33/42/28 32/42/27
f 25/42/26 26/42/29 31/42/29 30/42/26
f 28/42/28 29/42/25 34/42/25 33/42/28
f 26/42/29 27/42/27 32/42/27 31/42/29
f 26/42/30 25/42/30 29/42/30 28/42/30 27/42/30
f 37/42/31 36/42/26 41/42/26 44/42/31
f 35/42/32 39/42/33 38/42/33 43/42/32
f 36/42/26 40/42/34 42/42/34 41/42/26
f 39/42/33 37/42/31 44/42/31 38/42/33
f 40/42/34 35/42/32 43/42/32 42/42/34
f 40/42/35 36/42/35 37/42/35 39/42/35 35/42/35
f 42/42/36 43/42/36 38/42/36 44/42/36 41/42/36
f 49/42/37 48/42/36 50/42/36 54/42/37
f 46/42/38 45/42/39 53/42/39 52/42/38
f 48/42/36 47/42/40 51/42/40 50/42/36
f 45/42/39 49/42/37 54/42/37 53/42/39
f 47/42/40 46/42/38 52/42/38 51/42/40
f 47/42/26 48/42/26 49/42/26 45/42/26 46/42/26
f 51/42/41 52/42/41 53/42/41 54/42/41 50/42/41
f 59/42/29 64/42/29 60/42/26 55/42/26
f 57/42/28 62/42/28 63/42/27 58/42/27
f 55/42/26 60/42/26 61/42/25 56/42/25
f 58/42/27 63/42/27 64/42/29 59/42/29
f 56/42/25 61/42/25 62/42/28 57/42/28
f 56/42/30 57/42/30 58/42/30 59/42/30 55/42/30
f 67/42/31 44/42/31 41/42/26 66/42/26
f 65/42/32 43/42/32 38/42/33 68/42/33
f 66/42/26 41/42/26 42/42/34 69/42/34
f 68/42/33 38/42/33 44/42/31 67/42/31
f 69/42/34 42/42/34 43/42/32 65/42/32
f 69/42/36 65/42/36 68/42/36 67/42/36 66/42/36
f 74/42/42 79/42/42 75/42/35 73/42/35
f 71/42/43 77/42/43 78/42/44 70/42/44
f 73/42/35 75/42/35 76/42/45 72/42/45
f 70/42/44 78/42/44 79/42/42 74/42/42
f 72/42/45 76/42/45 77/42/43 71/42/43
f 72/42/26 71/42/26 70/42/26 74/42/26 73/42/26
f 76/42/41 75/42/41 79/42/41 78/42/41 77/42/41
f 84/42/46 89/42/46 85/42/41 80/42/41
f 82/42/47 87/42/47 88/42/48 83/42/48
f 80/42/41 85/42/41 86/42/49 81/42/49
f 83/42/48 88/42/48 89/42/46 84/42/46
f 81/42/49 86/42/49 87/42/47 82/42/47
f 81/42/30 82/42/30 83/42/30 84/42/30 80/42/30
f 92/42/50 99/42/50 96/42/41 91/42/41
f 90/42/51 98/42/51 93/42/52 94/42/52
f 91/42/41 96/42/41 97/42/53 95/42/53
f 94/42/52 93/42/52 99/42/50 92/42/50
f 95/42/53 97/42/53 98/42/51 90/42/51
f 95/42/35 90/42/35 94/42/35 92/42/35 91/42/35
f 97/42/36 96/42/36 99/42/36 93/42/36 98/42/36
f 104/42/37 54/42/37 50/42/36 103/42/36
f 101/42/38 52/42/38 53/42/39 100/42/39
f 103/42/36 50/42/36 51/42/40 102/42/40
f 100/42/39 53/42/39 54/42/37 104/42/37
f 102/42/40 51/42/40 52/42/38 101/42/38
f 102/42/41 101/42/41 100/42/41 104/42/41 103/42/41
f 109/42/49 105/42/41 110/42/41 114/42/49
f 107/42/48 108/42/47 113/42/47 112/42/48
f 105/42/41 106/42/46 111/42/46 110/42/41
f 108/42/47 109/42/49 114/42/49 113/42/47
f 106/42/46 107/42/48 112/42/48 111/42/46
f 106/42/30 105/42/30 109/42/30 108/42/30 107/42/30
f 117/42/50 116/42/41 96/42/41 99/42/50
f 115/42/51 118/42/52 93/42/52 98/42/51
f 116/42/41 119/42/53 97/42/53 96/42/41
f 118/42/52 117/42/50 99/42/50 93/42/52
f 119/42/53 115/42/51 98/42/51 97/42/53
f 119/42/36 116/42/36 117/42/36 118/42/36 115/42/36
f 124/42/42 123/42/35 75/42/35 79/42/42
f 121/42/43 120/42/44 78/42/44 77/42/43
f 123/42/35 122/42/45 76/42/45 75/42/35
f 120/42/44 124/42/42 79/42/42 78/42/44
f 122/42/45 121/42/43 77/42/43 76/42/45
f 122/42/41 123/42/41 124/42/41 120/42/41 121/42/41
