# Blender 4.0.2
# www.blender.org
mtllib Book.mtl
o Book
v 0.054086 -0.369776 -0.269999
v -0.054086 -0.369776 -0.269999
v -0.054086 0.369776 -0.269999
v 0.054086 0.369776 -0.269999
v -0.054086 -0.361124 0.260788
v 0.054086 0.361124 0.260788
v -0.054086 0.361124 0.260788
v 0.054086 -0.361124 0.260788
v 0.054086 0.386376 -0.286599
v 0.058374 0.390664 -0.290887
v 0.084185 -0.386376 -0.286599
v 0.079897 -0.390664 -0.290887
v 0.058374 0.390664 0.265076
v 0.054086 0.386376 0.260788
v 0.054086 -0.386376 0.260788
v 0.058374 -0.390664 0.265076
v -0.058374 0.390664 -0.290887
v -0.054086 0.386376 -0.286599
v -0.058374 -0.390664 -0.290887
v -0.054086 -0.386376 -0.286599
v -0.054086 0.386376 0.260788
v -0.058374 0.390664 0.265076
v -0.054086 -0.386376 0.260788
v -0.058374 -0.390664 0.265076
v -0.084185 -0.386376 -0.286599
v -0.079897 -0.390664 -0.290887
v -0.079897 -0.390664 0.286599
v 0.079897 0.390664 -0.290887
v 0.084185 0.386376 -0.286599
v 0.058374 -0.390664 -0.290887
v 0.054086 -0.386376 -0.286599
v -0.084185 0.386376 -0.286599
v -0.079897 0.390664 -0.290887
v 0.079897 0.390664 0.286599
v -0.079897 0.390664 0.286599
v 0.079897 -0.390664 0.286599
v -0.074617 -0.386376 0.290887
v -0.084185 -0.386376 0.281319
v -0.079926 -0.390635 0.286628
v 0.074617 0.386376 0.290887
v 0.084185 0.386376 0.281319
v 0.079926 0.390635 0.286628
v -0.084185 0.386376 0.281319
v -0.074617 0.386376 0.290887
v -0.079926 0.390635 0.286628
v 0.084185 -0.386376 0.281319
v 0.074617 -0.386376 0.290887
v 0.079926 -0.390635 0.286628
v 0.055442 0.374121 0.300593
v 0.055442 -0.374121 0.300593
v -0.055442 -0.374121 0.300593
v -0.055442 0.374121 0.300593
vn -0.3914 0.6507 -0.6507
vn -0.1101 0.9878 -0.1101
vn 0.3002 0.9054 0.3002
vn 0.3914 0.6507 -0.6507
vn -0.9098 -0.2951 0.2917
vn -0.9098 0.2951 0.2917
vn -0.9054 0.3002 -0.3002
vn -0.9054 -0.3002 -0.3002
vn -0.5789 -0.5743 -0.5789
vn -1.0000 -0.0000 -0.0000
vn -0.1101 -0.9878 -0.1101
vn -0.3914 -0.6507 -0.6507
vn 0.3914 -0.6507 -0.6507
vn 0.3002 -0.9054 0.3002
vn 0.1101 -0.9878 -0.1101
vn -0.3002 -0.9054 0.3002
vn 0.6106 0.5043 0.6106
vn 0.9098 0.2951 0.2917
vn 0.9054 0.3002 -0.3002
vn -0.5789 0.5743 -0.5789
vn 0.5789 0.5743 -0.5789
vn 1.0000 -0.0000 -0.0000
vn -0.0000 -0.0000 -1.0000
vn -0.3002 0.9054 0.3002
vn -0.6106 0.5043 0.6106
vn -0.3686 0.3623 0.8561
vn 0.3686 0.3623 0.8561
vn 0.9054 -0.3002 -0.3002
vn 0.5789 -0.5743 -0.5789
vn 0.1101 0.9878 -0.1101
vn -0.0000 0.9999 0.0163
vn -0.0000 -0.9999 0.0163
vn -0.3686 -0.3623 0.8561
vn -0.1669 -0.2699 0.9483
vn -0.1669 0.2699 0.9483
vn 0.9098 -0.2951 0.2917
vn -0.6106 -0.5043 0.6106
vn 0.6106 -0.5043 0.6106
vn 0.3686 -0.3623 0.8561
vn 0.1669 -0.2699 0.9483
vn 0.1669 0.2699 0.9483
vt 0.095831 0.739689
vt 0.147159 0.438899
vt 0.160791 0.429241
vt 0.107475 0.741676
vt 0.549496 0.347088
vt 0.163176 0.343657
vt 0.109837 0.053410
vt 0.601358 0.040521
vt 0.620247 0.723833
vt 0.568398 0.443320
vt 0.581339 0.440928
vt 0.627182 0.713754
vt 0.564884 0.441697
vt 0.617546 0.726605
vt 0.606516 0.728644
vt 0.551816 0.432706
vt 0.562868 0.362114
vt 0.562815 0.421726
vt 0.551888 0.351115
vt 0.160826 0.429244
vt 0.163183 0.433269
vt 0.111321 0.739835
vt 0.143482 0.440659
vt 0.092946 0.736809
vt 0.085497 0.726296
vt 0.129820 0.438327
vt 0.092432 0.056523
vt 0.144281 0.337037
vt 0.131340 0.339428
vt 0.085497 0.066602
vt 0.146765 0.360817
vt 0.146716 0.416050
vt 0.133823 0.416038
vt 0.133872 0.360806
vt 0.160863 0.347650
vt 0.160898 0.347648
vt 0.163731 0.351270
vt 0.163726 0.425617
vt 0.600797 0.019117
vt 0.109276 0.032005
vt 0.119557 0.021170
vt 0.589961 0.008835
vt 0.569197 0.339698
vt 0.619733 0.043547
vt 0.627182 0.054060
vt 0.582859 0.342029
vt 0.149811 0.418242
vt 0.149864 0.358630
vt 0.008835 0.701659
vt 0.067827 0.701659
vt 0.067827 0.991165
vt 0.008835 0.991165
vt 0.067827 0.298341
vt 0.008835 0.298341
vt 0.008835 0.008835
vt 0.067827 0.008835
vt 0.147795 0.338660
vt 0.095133 0.053751
vt 0.106163 0.051713
vt 0.111882 0.761240
vt 0.603403 0.748351
vt 0.593122 0.759187
vt 0.122717 0.771522
vt 0.106649 0.035934
vt 0.603626 0.022902
vt 0.603985 0.036592
vt 0.107008 0.049624
vt 0.616848 0.040667
vt 0.565520 0.341458
vt 0.605204 0.038680
vt 0.565914 0.419539
vt 0.565963 0.364307
vt 0.578856 0.364318
vt 0.578807 0.419551
vt 0.548953 0.354740
vt 0.541218 0.365376
vt 0.171638 0.361925
vt 0.602842 0.726946
vt 0.605671 0.730732
vt 0.108694 0.743764
vt 0.549503 0.436699
vt 0.551853 0.351113
vt 0.551781 0.432708
vt 0.109053 0.757454
vt 0.606030 0.744422
vt 0.548948 0.429087
vt 0.541041 0.418432
vt 0.171461 0.414981
s 1
usemtl Book
f 10/1/1 13/2/2 34/3/3 28/4/4
f 38/5/5 43/6/6 32/7/7 25/8/8
f 31/9/8 15/10/9 8/11/10 1/12/10
f 16/13/11 30/14/12 12/15/13 36/16/14
f 24/17/15 16/18/11 36/16/14 27/19/16
f 28/4/4 34/3/3 42/20/17 41/21/18 29/22/19
f 14/23/20 9/24/7 4/25/10 6/26/10
f 18/27/19 21/28/21 7/29/22 3/30/22
f 21/31/21 14/32/20 6/33/23 7/34/23
f 34/3/3 35/35/24 45/36/25 44/37/26 40/38/27 42/20/17
f 20/39/28 18/40/19 3/41/22 2/42/22
f 23/43/29 20/44/28 2/45/22 5/46/22
f 13/47/2 22/48/30 35/35/24 34/3/3
f 4/49/31 3/50/31 7/51/31 6/52/31
f 2/53/32 1/54/32 8/55/32 5/56/32
f 2/53/23 3/50/23 4/49/23 1/54/23
f 22/57/30 17/58/4 33/59/1 35/35/24
f 9/60/7 31/61/8 1/62/10 4/63/10
f 17/64/4 19/65/13 26/66/12 33/67/1
f 19/68/13 24/69/15 27/19/16 26/70/12
f 15/71/9 23/72/29 5/73/23 8/74/23
f 44/37/26 37/75/33 51/76/34 52/77/35
f 29/22/19 11/78/28 12/79/13 28/80/4
f 33/67/1 26/66/12 25/8/8 32/7/7
f 35/35/24 33/59/1 32/7/7 43/6/6 45/36/25
f 11/78/28 29/22/19 41/21/18 46/81/36
f 26/70/12 27/19/16 39/82/37 38/5/5 25/8/8
f 36/16/14 12/15/13 11/78/28 46/81/36 48/83/38
f 20/44/28 23/43/29 24/69/15 19/68/13
f 10/84/1 30/85/12 31/61/8 9/60/7
f 18/40/19 20/39/28 19/65/13 17/64/4
f 14/32/20 21/31/21 22/48/30 13/47/2
f 9/24/7 14/23/20 13/2/2 10/1/1
f 23/72/29 15/71/9 16/18/11 24/17/15
f 21/28/21 18/27/19 17/58/4 22/57/30
f 15/10/9 31/9/8 30/14/12 16/13/11
f 30/85/12 10/84/1 28/80/4 12/79/13
f 37/75/33 38/5/5 39/82/37
f 40/38/27 41/21/18 42/20/17
f 43/6/6 44/37/26 45/36/25
f 46/81/36 47/86/39 48/83/38
f 40/38/27 47/86/39 46/81/36 41/21/18
f 37/75/33 44/37/26 43/6/6 38/5/5
f 27/19/16 36/16/14 48/83/38 47/86/39 37/75/33 39/82/37
f 50/87/40 49/88/41 52/77/35 51/76/34
f 47/86/39 40/38/27 49/88/41 50/87/40
f 40/38/27 44/37/26 52/77/35 49/88/41
f 37/75/33 47/86/39 50/87/40 51/76/34
